 <svg version="1.0" xmlns="http://www.w3.org/2000/svg" width="700.000000pt" height="794.000000pt" viewBox="0 0 700.000000 794.000000" preserveAspectRatio="xMidYMid meet">
<metadata>
Created by potrace 1.12, written by Peter Selinger 2001-2015
</metadata>
<g transform="translate(0.000000,794.000000) scale(0.100000,-0.100000)" fill="#000000" stroke="none">
<path d="M3306 7379 c-22 -17 -29 -19 -41 -9 -12 10 -19 10 -33 -3 -15 -14
-25 -14 -80 -2 -58 12 -64 11 -87 -7 -23 -18 -30 -19 -76 -8 -40 10 -53 10
-59 1 -5 -9 -19 -8 -58 4 -56 19 -102 14 -102 -11 0 -12 9 -15 37 -12 35 3 38
1 44 -30 4 -18 15 -39 25 -47 18 -14 18 -14 -3 -15 -12 0 -37 10 -55 23 -19
12 -55 33 -81 47 l-47 25 -23 -26 c-12 -15 -43 -34 -68 -42 -27 -9 -64 -33
-91 -58 -73 -71 -121 -100 -181 -108 -42 -6 -65 -16 -96 -42 -75 -64 -96 -76
-145 -83 -28 -3 -79 -18 -115 -32 l-65 -26 -56 18 c-30 10 -60 20 -66 22 -7 2
-17 -11 -23 -29 -10 -30 -9 -34 26 -65 l37 -34 -35 0 c-18 0 -51 -3 -71 -6
-34 -6 -39 -11 -48 -48 -15 -59 -25 -80 -86 -182 -48 -81 -53 -95 -44 -118 16
-42 12 -53 -19 -64 -31 -11 -41 -43 -41 -138 0 -71 -14 -81 -74 -49 l-47 25
-10 -28 c-6 -15 -15 -35 -20 -44 -6 -12 -5 -25 3 -38 23 -37 -28 -138 -61
-121 -14 8 -16 -1 -16 -75 0 -65 4 -87 17 -100 16 -16 16 -20 -2 -67 -10 -27
-26 -57 -35 -67 -15 -17 -30 -97 -42 -222 -3 -43 -1 -59 9 -62 88 -24 102 -46
40 -64 -68 -21 -70 -31 -22 -124 38 -74 43 -91 44 -154 1 -43 6 -77 14 -87 10
-12 11 -21 2 -37 -8 -15 -8 -30 -1 -51 8 -24 7 -31 -4 -36 -14 -5 -48 -2 -85
8 -20 5 -16 -34 8 -81 23 -46 29 -50 85 -50 46 0 47 -1 47 -30 0 -22 9 -39 35
-61 43 -38 44 -57 4 -72 -31 -12 -31 -12 -25 -71 8 -76 22 -97 104 -150 37
-24 85 -59 107 -79 l40 -35 -18 -49 c-9 -26 -22 -77 -27 -111 l-11 -63 36 -42
c36 -42 48 -76 93 -258 17 -66 19 -94 12 -120 -23 -80 5 -582 40 -719 12 -47
30 -129 41 -183 21 -112 46 -174 110 -267 24 -36 71 -116 104 -179 39 -74 81
-137 121 -180 33 -36 81 -93 106 -126 25 -33 55 -69 67 -79 12 -11 48 -62 81
-115 48 -77 80 -115 166 -191 58 -52 152 -137 207 -189 118 -108 133 -117 218
-130 40 -7 82 -22 113 -42 49 -30 93 -41 219 -56 41 -5 52 -11 68 -37 10 -17
21 -35 23 -41 2 -5 13 0 25 12 15 16 33 23 59 23 20 0 57 6 82 14 25 8 83 24
130 36 47 12 92 26 100 31 8 5 34 18 56 28 44 20 138 89 195 142 75 70 122
103 156 108 40 7 44 12 68 96 12 41 27 67 48 85 61 50 117 113 204 228 48 64
123 161 165 214 95 118 109 141 143 243 15 44 49 127 75 185 65 143 99 254
116 385 37 271 99 516 152 593 39 57 81 142 72 147 -4 2 -21 -1 -38 -7 -60
-23 -55 -2 38 146 28 44 50 87 50 97 0 10 -12 31 -26 48 -31 37 -26 55 21 78
43 20 52 14 69 -53 23 -92 46 -61 76 104 29 159 43 322 36 395 -7 63 -7 65 22
86 16 11 32 33 35 48 5 19 25 41 67 70 l60 43 0 130 c0 128 0 130 -29 162
l-29 33 24 75 c13 41 26 91 29 111 3 20 21 56 40 81 23 29 37 60 41 90 6 41 4
48 -20 69 -23 20 -26 29 -21 56 6 33 5 33 -33 33 -56 0 -68 17 -35 52 26 27
27 30 13 61 -20 45 -18 158 4 256 19 82 19 84 1 97 -10 8 -33 14 -51 14 -49 0
-64 9 -64 39 0 18 -12 39 -34 60 -41 40 -54 97 -31 141 8 16 15 51 15 79 0 43
-4 53 -31 76 -18 14 -55 38 -82 52 -28 14 -73 40 -99 59 -27 18 -66 36 -86 40
-117 20 -153 49 -188 157 -22 67 -30 77 -67 77 -23 0 -43 11 -75 43 -43 42
-43 42 -36 13 6 -26 5 -28 -12 -21 -10 4 -31 10 -46 12 -17 3 -28 13 -32 28
-8 33 -88 70 -146 68 -30 -1 -51 4 -65 16 -11 9 -33 26 -50 36 -16 10 -61 43
-98 73 -57 46 -72 54 -86 45 -20 -12 -24 -11 -125 55 -50 32 -81 46 -110 47
-24 1 -66 15 -100 34 -32 17 -70 31 -85 31 -16 0 -54 9 -86 20 -32 11 -71 20
-86 20 -15 0 -34 6 -41 13 -7 7 -41 19 -76 26 -34 7 -81 19 -104 27 -56 19
-91 18 -122 -7z m31 -85 c-10 -10 -48 27 -41 38 4 6 16 1 27 -11 12 -11 18
-24 14 -27z m-214 -40 c11 -11 -5 -34 -24 -34 -22 0 -24 11 -7 28 13 13 22 15
31 6z m308 -106 c-18 -16 -36 -27 -39 -24 -9 10 50 66 61 59 6 -3 -4 -19 -22
-35z m-1246 -168 c3 -5 2 -10 -4 -10 -5 0 -13 5 -16 10 -3 6 -2 10 4 10 5 0
13 -4 16 -10z m2139 -266 c102 -40 259 -164 382 -302 127 -144 180 -234 274
-468 l85 -209 3 -133 c2 -74 -2 -195 -8 -270 -15 -187 -37 -541 -50 -812 -29
-633 -45 -722 -200 -1170 -12 -36 -24 -82 -27 -102 -4 -29 -13 -42 -43 -62
-48 -32 -85 -80 -105 -135 -8 -24 -37 -73 -63 -110 -27 -36 -64 -91 -82 -122
-18 -30 -48 -66 -67 -79 -43 -29 -63 -67 -63 -120 0 -46 -17 -59 -55 -42 -17
8 -26 22 -30 49 -3 21 -17 72 -30 114 -14 42 -25 84 -25 93 0 9 -12 21 -27 27
-16 6 -44 26 -64 45 -24 23 -43 34 -59 32 -17 -2 -25 3 -28 17 -2 11 -9 26
-14 33 -12 14 -128 17 -128 2 0 -16 -46 -11 -69 8 -35 28 -55 247 -37 413 l9
77 -57 36 c-32 20 -71 39 -86 43 -31 6 -110 -27 -220 -91 -34 -20 -75 -36 -91
-36 -50 0 -139 55 -139 87 0 7 -9 22 -20 33 -45 45 -151 11 -136 -43 4 -12 16
-60 27 -106 17 -68 29 -96 65 -141 24 -31 44 -65 44 -76 0 -30 -56 -140 -75
-147 -9 -4 -26 -7 -37 -7 -11 0 -31 -11 -44 -25 -20 -22 -32 -25 -87 -25 -80
0 -162 24 -192 56 -23 24 -42 29 -83 18 -29 -8 -120 -145 -127 -193 -21 -127
-59 -320 -68 -341 l-11 -25 -4 30 c-6 47 -17 50 -67 14 -39 -28 -48 -31 -56
-19 -6 8 -41 79 -79 157 -66 136 -70 142 -124 177 -31 20 -56 42 -56 50 0 20
-39 66 -65 76 -16 6 -28 25 -39 58 -12 34 -29 59 -56 81 -32 26 -40 39 -45 78
-8 61 -24 111 -36 119 -6 3 -16 1 -24 -6 -15 -12 -19 -8 -29 35 -4 16 -11 32
-15 35 -4 3 -16 30 -27 60 -16 42 -19 62 -12 85 14 46 29 240 33 440 2 99 9
243 14 320 6 77 16 259 21 405 6 146 15 310 22 365 8 75 8 159 0 338 -11 222
-11 242 8 320 10 45 25 118 33 162 17 90 36 128 171 332 95 143 251 314 310
338 17 7 78 21 136 30 127 21 154 34 180 85 11 22 26 40 33 40 26 0 96 -45
112 -72 9 -15 31 -35 48 -44 18 -9 51 -30 74 -47 41 -29 45 -30 170 -32 109
-1 140 -5 208 -28 182 -61 276 -67 455 -27 47 10 123 27 169 36 52 11 94 26
109 39 24 21 24 22 8 48 -10 14 -16 36 -14 49 4 31 43 37 58 9 13 -26 46 -27
59 -3 5 9 12 34 16 55 4 20 14 41 22 46 17 9 78 -2 137 -25z m-1694 -14 c0 -5
-5 -10 -11 -10 -5 0 -7 5 -4 10 3 6 8 10 11 10 2 0 4 -4 4 -10z m2870 -1220
c0 -5 -6 -10 -14 -10 -8 0 -18 5 -21 10 -3 6 3 10 14 10 12 0 21 -4 21 -10z
m-4050 -905 c0 -9 -6 -12 -15 -9 -8 4 -15 10 -15 15 0 5 7 9 15 9 8 0 15 -7
15 -15z m2058 -1525 c4 -72 -8 -80 -112 -80 -165 0 -232 50 -168 123 14 15 31
17 146 15 l131 -3 3 -55z m262 -80 c0 -5 -4 -10 -10 -10 -5 0 -10 5 -10 10 0
6 5 10 10 10 6 0 10 -4 10 -10z m-385 -90 c167 -11 252 -28 293 -61 21 -16 42
-19 142 -19 l118 0 36 -40 c20 -22 36 -43 37 -48 0 -4 6 -49 12 -101 l12 -94
35 -11 c21 -6 36 -19 38 -30 3 -14 0 -17 -12 -13 -20 8 -20 6 1 -59 9 -30 13
-57 10 -61 -4 -4 -38 8 -76 26 -52 26 -75 32 -99 27 -48 -11 -60 -32 -33 -59
13 -15 21 -36 21 -60 0 -36 12 -48 25 -27 4 6 11 7 17 4 8 -5 9 -1 3 12 -17
42 -18 64 -1 64 9 0 16 7 16 15 0 20 15 19 35 -2 14 -13 16 -29 12 -74 -6 -70
-26 -113 -53 -117 -12 -2 -27 -15 -34 -30 l-12 -27 -28 34 c-27 31 -30 32 -45
17 -9 -9 -28 -18 -43 -22 -69 -14 -180 -84 -233 -146 l-26 -31 -25 34 c-14 19
-47 75 -73 124 -27 50 -57 102 -68 117 -14 19 -21 49 -24 115 l-6 88 36 46
c50 66 57 82 57 133 0 52 1 51 -111 61 l-76 6 -58 -68 c-31 -37 -63 -83 -71
-101 -13 -29 -12 -37 7 -82 20 -47 21 -72 4 -112 -5 -13 4 -29 34 -59 28 -29
41 -51 40 -68 -1 -37 -34 -127 -45 -123 -11 4 -8 20 12 84 17 52 13 68 -16 68
-19 0 -28 -22 -45 -102 -12 -59 -75 -57 -75 3 0 16 -3 29 -6 29 -14 0 -137
-136 -146 -162 -12 -34 -28 -32 -41 6 -7 20 -3 45 14 97 27 84 21 95 -56 102
-49 4 -50 4 -50 38 0 57 -18 48 -57 -29 -50 -97 -50 -112 2 -112 44 0 47 -5
24 -38 -19 -27 -38 -28 -71 -2 -15 12 -34 18 -44 15 -27 -9 -42 72 -20 100 62
76 65 87 66 178 0 48 -3 87 -8 87 -4 0 -24 -11 -44 -25 -28 -18 -41 -22 -55
-14 -24 13 -23 36 2 49 24 13 60 80 60 111 0 13 9 56 20 96 17 57 19 77 10 94
-10 18 -7 26 22 56 55 57 110 84 191 93 108 11 342 11 522 0z m-811 -539 c9
-13 -3 -39 -20 -45 -20 -8 -29 20 -14 39 14 17 26 19 34 6z m1527 -105 c-12
-29 -34 -31 -39 -3 -2 9 5 28 14 43 17 25 19 25 27 7 5 -11 4 -30 -2 -47z
m-1496 5 c-7 -23 -25 -29 -25 -8 0 14 21 39 28 33 2 -3 1 -14 -3 -25z m795
-91 c0 -5 -5 -10 -11 -10 -5 0 -7 5 -4 10 3 6 8 10 11 10 2 0 4 -4 4 -10z
m-51 -91 c19 -26 21 -35 12 -55 -14 -31 -29 -31 -37 0 -4 17 -11 22 -25 19
-23 -7 -25 14 -3 45 20 29 26 28 53 -9z m-719 -70 c0 -5 -4 -9 -10 -9 -5 0
-10 7 -10 16 0 8 5 12 10 9 6 -3 10 -10 10 -16z m470 -14 c-7 -9 -15 -13 -18
-10 -3 2 1 11 8 20 7 9 15 13 18 10 3 -2 -1 -11 -8 -20z m-60 -51 c15 -37 13
-107 -2 -102 -15 5 -26 41 -27 91 -1 43 15 49 29 11z m-240 -151 c0 -26 -7
-26 -77 3 -35 14 -47 40 -14 29 10 -3 29 -1 42 4 30 11 49 -3 49 -36z m1015
-2 c8 -15 -28 -31 -45 -21 -13 8 -3 16 37 29 1 1 4 -3 8 -8z m-615 -51 c0 -5
-7 -10 -15 -10 -8 0 -15 5 -15 10 0 6 7 10 15 10 8 0 15 -4 15 -10z"></path>
<path d="M2815 4904 c-38 -10 -140 -47 -148 -54 -4 -3 3 -16 16 -28 31 -29
177 -112 198 -112 20 0 49 -31 49 -53 0 -34 -31 -40 -309 -62 -191 -15 -257
-30 -308 -71 l-27 -21 32 -17 c46 -24 122 -31 166 -16 36 11 38 11 80 -28 55
-50 92 -56 346 -57 153 0 190 3 215 17 51 27 68 53 62 92 -4 22 -1 36 6 39 20
8 -4 23 -78 52 -38 14 -77 30 -85 34 -16 8 -37 57 -29 65 5 5 127 8 168 3 38
-3 36 18 -6 65 -21 24 -44 55 -50 69 -21 48 -219 103 -298 83z"></path>
<path d="M3983 4806 c-58 -14 -133 -59 -180 -108 -35 -36 -33 -48 12 -69 34
-16 39 -37 12 -53 -15 -9 -21 -7 -36 14 -16 20 -21 22 -35 11 -9 -7 -16 -19
-16 -25 0 -6 -13 -23 -29 -37 -54 -47 -60 -144 -14 -208 23 -32 117 -81 154
-81 14 0 46 7 70 16 35 13 110 18 364 24 176 4 328 11 338 15 25 10 22 57 -5
82 -32 28 -110 72 -149 83 -18 6 -117 19 -219 30 -297 32 -293 30 -218 94 52
45 109 62 247 76 115 12 181 26 181 39 0 5 -31 28 -70 51 -54 32 -85 44 -137
51 -94 12 -208 10 -270 -5z"></path>
<path d="M3800 2203 c0 -4 5 -15 10 -23 8 -13 10 -13 10 2 0 9 -4 20 -10 23
-5 3 -10 3 -10 -2z"></path>
</g>
</svg>