 <svg version="1.0" xmlns="http://www.w3.org/2000/svg" width="700.000000pt" height="911.000000pt" viewBox="0 0 700.000000 911.000000" preserveAspectRatio="xMidYMid meet">
<metadata>
Created by potrace 1.12, written by Peter Selinger 2001-2015
</metadata>
<g transform="translate(0.000000,911.000000) scale(0.100000,-0.100000)" fill="#000000" stroke="none">
<path d="M3312 8760 c-24 -15 -43 -19 -67 -14 -19 3 -35 1 -39 -5 -9 -14 -61
-14 -127 0 -48 11 -57 9 -96 -12 -40 -22 -46 -22 -103 -11 -44 10 -65 10 -81
2 -15 -9 -36 -7 -87 6 -72 18 -122 14 -122 -11 0 -11 11 -15 39 -15 42 0 56
-11 66 -52 4 -14 15 -35 26 -47 49 -53 -5 -40 -125 29 -57 33 -108 60 -113 60
-5 0 -20 -11 -33 -25 -13 -14 -56 -40 -95 -59 -41 -20 -102 -61 -141 -96 -91
-81 -138 -108 -228 -129 -74 -18 -97 -30 -201 -112 -38 -29 -68 -43 -125 -55
-41 -9 -113 -30 -159 -47 l-84 -30 -84 27 c-47 15 -86 26 -87 24 -11 -13 -26
-50 -26 -64 0 -10 18 -37 41 -60 l40 -41 -70 -7 c-108 -10 -113 -13 -139 -95
-12 -39 -56 -131 -98 -204 -77 -136 -79 -143 -58 -214 5 -18 0 -26 -29 -43
-43 -26 -54 -53 -62 -155 -11 -142 -15 -146 -106 -99 -28 14 -52 24 -54 22
-25 -29 -39 -83 -39 -154 -1 -72 -4 -84 -28 -117 -16 -19 -38 -37 -50 -39 -22
-3 -23 -7 -23 -103 0 -79 4 -105 18 -125 9 -13 17 -31 17 -39 0 -8 -20 -55
-44 -105 -36 -74 -48 -111 -60 -197 -9 -59 -16 -131 -16 -161 l0 -54 55 -23
c30 -13 55 -29 55 -37 0 -7 -26 -26 -57 -41 -38 -19 -59 -35 -61 -48 -1 -11
18 -62 43 -114 40 -82 48 -110 61 -210 9 -64 16 -152 17 -196 l2 -80 -67 1
c-67 1 -68 0 -68 -25 0 -36 44 -127 65 -134 9 -4 33 -7 53 -7 64 0 79 -9 85
-47 4 -21 21 -51 47 -79 50 -55 51 -79 5 -101 -33 -16 -35 -20 -35 -63 0 -63
25 -142 52 -167 13 -12 64 -49 114 -84 51 -35 110 -81 133 -102 l41 -37 -15
-38 c-19 -45 -55 -201 -55 -238 0 -16 15 -45 36 -71 44 -54 67 -110 109 -273
46 -179 47 -185 34 -288 -10 -72 -10 -146 -1 -335 17 -329 33 -466 87 -712 66
-301 71 -315 180 -490 34 -55 88 -147 120 -205 77 -140 122 -206 224 -326 180
-213 220 -263 288 -365 39 -57 91 -126 115 -154 60 -66 496 -461 548 -496 24
-16 77 -36 130 -48 49 -11 125 -38 167 -59 82 -41 128 -54 258 -73 97 -13 107
-18 136 -66 12 -21 24 -40 26 -42 2 -3 17 6 34 18 20 15 54 26 93 31 33 4 131
27 216 50 232 63 335 120 535 295 105 92 170 135 202 135 36 0 58 31 88 121
26 78 33 88 102 154 41 38 107 111 147 160 129 160 412 529 438 570 14 22 46
95 71 161 25 66 72 183 105 260 96 224 117 300 161 575 67 411 124 614 220
774 87 145 90 173 15 145 -32 -13 -49 -1 -40 28 4 10 42 79 86 152 44 74 80
140 80 148 0 9 -14 37 -31 63 -17 27 -29 56 -27 66 2 10 24 29 50 43 43 23 49
23 63 9 9 -9 24 -42 34 -75 35 -120 63 -73 105 176 34 202 50 379 42 483 l-6
87 36 40 c20 22 44 55 53 73 9 17 50 58 91 89 l75 57 -3 174 -3 174 -36 43
-36 42 21 67 c12 36 30 101 41 144 12 47 36 105 60 146 70 114 77 166 31 218
-24 27 -30 43 -30 78 l0 45 -39 0 c-77 0 -88 19 -45 75 25 33 25 34 10 86 -20
66 -20 179 0 284 26 140 28 171 13 181 -8 5 -43 13 -78 19 -66 11 -75 19 -85
66 -3 14 -24 49 -47 78 -50 63 -60 115 -35 187 9 26 16 73 16 104 0 50 -3 59
-32 87 -32 30 -217 144 -308 189 -25 12 -69 27 -98 33 -115 24 -172 77 -212
195 -28 86 -44 105 -93 113 -30 4 -54 18 -88 50 -25 23 -49 43 -53 43 -3 0 -6
-11 -6 -25 0 -14 -1 -25 -3 -25 -2 0 -27 7 -55 15 -38 12 -56 23 -66 44 -8 15
-25 35 -38 43 -39 25 -119 48 -168 48 -41 0 -57 8 -136 63 -49 35 -120 87
-158 116 -62 47 -73 52 -104 46 -30 -5 -45 1 -126 52 -87 55 -170 92 -210 93
-10 0 -53 16 -96 35 -42 19 -106 41 -141 49 -151 34 -247 59 -289 77 -67 27
-273 79 -317 79 -21 0 -53 -9 -71 -20z m18 -80 c22 -22 26 -40 10 -40 -13 0
-50 37 -50 50 0 16 18 12 40 -10z m-275 -105 c0 -25 -31 -43 -46 -28 -10 10
-8 17 6 33 21 24 40 21 40 -5z m444 -102 c-28 -36 -79 -70 -79 -54 0 15 60 71
77 71 13 0 14 -2 2 -17z m-1704 -253 c3 -5 -1 -10 -9 -10 -9 0 -16 5 -16 10 0
6 4 10 9 10 6 0 13 -4 16 -10z m2827 -338 c164 -46 418 -242 609 -471 149
-178 211 -291 359 -649 l90 -219 0 -224 c0 -123 -9 -348 -20 -499 -17 -243
-28 -426 -71 -1220 -26 -499 -62 -697 -204 -1128 -41 -125 -78 -243 -81 -262
-10 -54 -28 -82 -77 -119 -56 -42 -78 -71 -136 -185 -63 -122 -234 -369 -284
-408 -45 -36 -76 -96 -77 -149 0 -20 -8 -47 -18 -59 -14 -17 -22 -20 -43 -12
-38 15 -47 31 -75 138 -65 244 -57 225 -106 258 -25 17 -65 46 -88 64 -24 17
-54 32 -67 32 -18 0 -28 9 -38 34 -8 18 -22 36 -30 40 -27 10 -143 7 -150 -4
-9 -15 -68 -12 -92 5 -32 23 -51 99 -64 252 -7 96 -7 171 0 260 6 68 11 132
11 142 0 11 -30 35 -82 67 -116 70 -127 69 -330 -33 -184 -93 -206 -97 -285
-58 -56 28 -77 48 -101 97 -24 47 -79 72 -128 59 -47 -13 -74 -38 -74 -67 0
-30 44 -200 64 -247 8 -19 37 -69 65 -110 28 -41 51 -84 51 -95 0 -28 -34
-105 -70 -157 -23 -33 -38 -45 -56 -45 -29 0 -58 -14 -97 -46 -63 -53 -291
-18 -372 57 -21 19 -40 23 -87 21 -21 -2 -39 -16 -73 -59 -81 -104 -103 -158
-135 -331 -39 -207 -70 -341 -80 -347 -5 -3 -12 10 -16 30 -3 19 -11 38 -16
41 -5 3 -36 -10 -69 -31 -32 -20 -63 -33 -69 -30 -6 3 -55 96 -110 205 l-100
199 -70 50 c-42 31 -75 64 -86 86 -9 19 -38 53 -64 75 -30 26 -55 58 -69 91
-12 28 -46 76 -75 108 -48 52 -55 65 -65 126 -7 38 -18 84 -26 102 -12 29 -18
33 -46 31 -29 -3 -32 0 -44 40 -7 23 -17 48 -23 55 -5 7 -20 40 -32 75 -18 50
-21 73 -16 120 4 31 11 93 17 137 5 44 16 249 24 455 8 206 19 438 25 515 5
77 14 250 20 385 5 135 16 322 23 415 13 179 15 425 7 765 l-5 205 37 170 c52
240 61 261 181 450 104 162 223 317 325 426 132 140 141 144 335 184 92 19
180 41 197 50 17 9 47 41 66 71 30 46 39 54 57 48 46 -14 82 -38 128 -86 62
-65 223 -168 263 -168 17 -1 101 -5 186 -10 135 -7 170 -13 267 -43 236 -74
368 -75 676 -8 190 41 281 71 296 99 5 10 1 31 -11 59 -18 41 -18 46 -4 69 21
31 39 30 69 -2 39 -42 68 -30 90 36 30 96 33 100 70 100 18 0 62 -8 99 -18z
m1638 -1680 c0 -14 -11 -21 -26 -15 -21 8 -17 23 6 23 11 0 20 -4 20 -8z
m-5463 -1217 c3 -9 3 -19 -1 -22 -8 -9 -37 18 -30 28 8 14 24 11 31 -6z m2781
-2056 c2 -53 -1 -70 -17 -90 -18 -23 -24 -24 -138 -23 -85 0 -132 5 -170 18
-86 29 -107 83 -54 137 l30 29 173 -2 173 -3 3 -66z m349 -125 c-9 -9 -28 6
-21 18 4 6 10 6 17 -1 6 -6 8 -13 4 -17z m-460 -115 c166 -14 251 -31 327 -69
61 -29 66 -30 214 -30 l151 0 49 -59 c48 -58 49 -61 61 -157 22 -176 21 -172
50 -179 58 -14 99 -65 52 -65 -19 0 -19 -1 0 -67 10 -38 19 -74 19 -80 0 -20
-26 -15 -103 19 -84 38 -156 44 -184 15 -17 -17 -17 -19 4 -55 12 -21 25 -56
28 -78 10 -52 11 -54 39 -41 20 10 22 15 15 35 -15 38 -10 60 17 87 20 20 29
23 44 15 27 -14 34 -50 27 -127 -7 -74 -31 -122 -70 -141 -15 -7 -34 -27 -43
-44 l-16 -30 -39 38 -38 37 -33 -16 c-18 -9 -61 -27 -96 -41 -92 -35 -166 -83
-239 -155 l-66 -63 -22 28 c-12 15 -43 66 -70 113 -26 47 -70 123 -97 169 -54
91 -68 147 -68 267 0 67 2 73 41 125 55 72 79 126 79 177 0 67 -14 74 -176 88
l-71 7 -55 -64 c-121 -138 -145 -194 -117 -265 23 -57 28 -98 17 -140 -10 -42
-10 -43 41 -104 38 -46 51 -68 50 -92 0 -41 -40 -149 -56 -155 -18 -5 -16 20
8 99 17 56 19 72 9 84 -30 36 -54 7 -85 -107 -19 -69 -43 -88 -81 -63 -18 11
-24 24 -24 50 0 19 -4 35 -9 35 -16 0 -171 -171 -191 -211 -23 -44 -23 -44
-44 -23 -22 21 -20 83 4 171 25 86 18 109 -35 118 -19 3 -50 7 -69 10 -30 5
-34 9 -39 46 -7 51 -15 59 -34 34 -30 -39 -95 -185 -89 -200 3 -9 18 -15 38
-15 18 0 40 -5 48 -10 13 -8 13 -13 0 -37 -20 -36 -57 -41 -101 -14 -19 12
-44 21 -56 21 -28 0 -43 27 -43 76 0 28 12 54 47 106 l48 69 3 105 c6 141 6
141 -67 101 -58 -31 -59 -32 -80 -13 -27 25 -27 31 9 62 33 30 80 117 80 148
0 12 12 68 26 125 20 82 23 109 15 133 -10 27 -7 33 34 77 55 59 125 98 208
116 78 17 617 20 804 4z m-1149 -742 c4 -33 -29 -55 -48 -32 -10 12 -9 20 4
41 21 31 40 27 44 -9z m2066 -64 c9 -21 -11 -80 -29 -87 -21 -8 -35 23 -23 53
18 49 41 64 52 34z m-2014 -31 c0 -15 -28 -47 -35 -40 -11 11 5 48 21 48 8 0
14 -4 14 -8z m1060 -142 c0 -5 -5 -10 -11 -10 -5 0 -7 5 -4 10 3 6 8 10 11 10
2 0 4 -4 4 -10z m-50 -151 c10 -24 10 -33 -4 -54 -21 -32 -27 -31 -48 5 -11
19 -25 30 -39 30 -15 0 -19 4 -15 16 3 9 6 19 6 23 0 4 9 17 21 30 l21 22 23
-21 c13 -12 29 -35 35 -51z m-990 -64 c0 -8 -4 -15 -10 -15 -5 0 -10 7 -10 15
0 8 5 15 10 15 6 0 10 -7 10 -15z m650 -3 c0 -11 -22 -32 -32 -32 -5 0 -4 9 2
20 11 20 30 28 30 12z m-94 -87 c18 -45 19 -135 1 -135 -21 0 -37 45 -37 104
0 47 5 66 17 66 2 0 11 -16 19 -35z m-328 -198 c3 -37 3 -38 -25 -31 -46 11
-113 45 -113 58 0 7 24 11 68 11 l67 0 3 -38z m1372 -12 c0 -17 -36 -39 -50
-30 -16 10 -12 21 13 33 30 15 37 14 37 -3z m-830 -63 c0 -14 -11 -21 -26 -15
-8 3 -11 9 -8 14 7 11 34 12 34 1z"></path>
<path d="M2646 5419 c-53 -13 -186 -60 -191 -69 -3 -5 -3 -14 0 -22 8 -21 122
-93 223 -141 93 -44 121 -67 122 -99 0 -43 -59 -55 -390 -83 -203 -17 -294
-30 -355 -52 -47 -16 -115 -59 -115 -72 0 -5 26 -19 58 -31 50 -20 69 -21 159
-16 l101 6 49 -40 c81 -68 117 -74 438 -75 l280 0 47 28 c57 33 68 51 68 111
0 25 5 48 10 51 6 3 10 11 10 16 0 10 -24 22 -162 79 -63 26 -79 37 -92 65 -9
18 -16 38 -16 44 0 7 42 11 128 11 71 0 132 3 135 6 9 9 -9 39 -57 101 -23 28
-49 64 -60 79 -45 64 -283 126 -390 103z"></path>
<path d="M4295 5299 c-38 -4 -89 -14 -112 -23 -92 -33 -233 -141 -233 -178 0
-10 18 -30 40 -45 44 -28 50 -56 18 -77 -14 -8 -23 -5 -49 19 l-31 30 -16 -23
c-10 -13 -36 -46 -59 -74 -57 -69 -72 -133 -49 -210 19 -66 59 -106 150 -149
73 -34 72 -34 178 -9 67 16 141 22 378 30 382 12 560 21 576 27 9 3 14 20 14
43 0 49 -38 83 -152 139 -77 38 -95 42 -253 61 -93 11 -225 27 -292 35 -179
22 -201 35 -145 87 83 77 150 99 369 128 87 11 176 25 198 31 l40 11 -36 32
c-51 43 -158 95 -221 105 -80 14 -235 19 -313 10z"></path>
<path d="M3980 1766 c0 -9 5 -16 10 -16 6 0 10 4 10 9 0 6 -4 13 -10 16 -5 3
-10 -1 -10 -9z"></path>
</g>
</svg>